<svg xmlns="http://www.w3.org/2000/svg" viewBox="0 0 32 32" fill="none">
  <g stroke="#0B0B0C" stroke-width="1.75" stroke-linecap="round" stroke-linejoin="round" fill="none">
    <path d="M8.5 5 L23.5 5"></path>
    <path d="M8.5 27 L23.5 27"></path>
    <path d="M9.5 5.5 C 9.5 11, 16 13.5, 16 16 C 16 18.5, 9.5 21, 9.5 26.5"></path>
    <path d="M22.5 5.5 C 22.5 11, 16 13.5, 16 16 C 16 18.5, 22.5 21, 22.5 26.5"></path>
  </g>

  <path class="ww-mark__top-sand" d="M10.2 5.7 C 10.4 9.5, 13 12, 16 12.5 C 19 12, 21.6 9.5, 21.8 5.7 Z" fill="#0B0B0C" opacity="0.62"></path>

  <line class="ww-mark__stream" x1="16" y1="13" x2="16" y2="22" stroke="#0B0B0C" stroke-width="1" stroke-linecap="round" opacity="0.55"></line>

  <path class="ww-mark__pile" d="M11.6 25.4 C 12.8 23, 14.3 22, 16 22 C 17.7 22, 19.2 23, 20.4 25.4 Z" fill="#0B0B0C" opacity="0.62"></path>

  <circle class="ww-mark__glow" cx="16" cy="19" r="1.35" fill="#C9582A" opacity="0"></circle>
  <circle class="ww-mark__ember" cx="16" cy="19" r="1.35" fill="#C9582A"></circle>
</svg>
