<?xml version="1.0" encoding="UTF-8"?>
<svg version="1.1" xmlns="http://www.w3.org/2000/svg" width="1024" height="1024">
<path d="M0 0 C2.69869382 2.69869382 2.53470242 4.61107491 3 8.375 C3.55625109 12.77534345 4.19219524 17.12806891 4.96484375 21.49609375 C6.32567168 29.53998673 7.00992091 37.64743464 7.75268555 45.76635742 C7.93701107 47.7651447 8.12661478 49.76344307 8.31640625 51.76171875 C8.42412354 52.93694092 8.53184082 54.11216309 8.64282227 55.32299805 C8.71288873 57.91534837 8.71288873 57.91534837 10 59 C10.34967937 61.50422907 10.6434044 63.99377798 10.90234375 66.5078125 C11.07219194 68.06771636 11.24211632 69.62761192 11.41210938 71.1875 C11.67506048 73.64921156 11.93603921 76.11111487 12.19506836 78.57324219 C12.44647821 80.94785498 12.7053521 83.32157124 12.96484375 85.6953125 C13.07589699 86.78478683 13.07589699 86.78478683 13.18919373 87.89627075 C13.69054527 92.45177999 14.73376532 96.58351472 16 101 C16.39037523 103.67112221 16.72763249 106.30648656 17 108.98828125 C17.08121094 109.73152145 17.16242188 110.47476166 17.24609375 111.24052429 C17.50315357 113.59727156 17.75235006 115.95474677 18 118.3125 C19.3007009 130.99698742 19.3007009 130.99698742 21.52685547 143.54321289 C22.54517143 148.83078436 22.99652769 154.21121685 23.5625 159.5625 C23.80983112 161.89755944 24.06091711 164.23222533 24.31640625 166.56640625 C24.42412354 167.58677979 24.53184082 168.60715332 24.64282227 169.65844727 C24.75639598 171.95386039 24.75639598 171.95386039 26 173 C26.29643736 174.55587743 26.53780894 176.12235187 26.75390625 177.69140625 C26.95209961 179.10776367 26.95209961 179.10776367 27.15429688 180.55273438 C27.28900391 181.54595703 27.42371094 182.53917969 27.5625 183.5625 C27.70107422 184.55958984 27.83964844 185.55667969 27.98242188 186.58398438 C28.32535906 189.05549716 28.66437454 191.52748545 29 194 C30.20124512 194.14622803 31.40249023 194.29245605 32.64013672 194.44311523 C37.0872132 194.98544782 41.53368156 195.53263086 45.97998047 196.08129883 C47.90624962 196.31830563 49.8326822 196.55398801 51.75927734 196.78833008 C54.5248525 197.1249531 57.28980931 197.46629932 60.0546875 197.80859375 C60.9193161 197.91280136 61.7839447 198.01700897 62.67477417 198.12437439 C68.77225659 198.88612829 68.77225659 198.88612829 71 200 C73.40741983 200.33055439 75.8029092 200.61523901 78.21875 200.8671875 C79.71437133 201.03053518 81.20997618 201.19403381 82.70556641 201.35766602 C83.88037567 201.48421066 83.88037567 201.48421066 85.07891846 201.61331177 C106.93650499 203.97583987 106.93650499 203.97583987 117.59960938 205.9230957 C125.07219678 207.25995982 132.60782794 208.07754376 140.15087891 208.91040039 C144.71246224 209.42641163 149.19831421 209.99267245 153.6875 210.9609375 C161.04227286 212.5120591 168.53870184 213.21077207 176 214.0625 C178.97968607 214.40324346 181.95873062 214.74900136 184.9375 215.09765625 C186.24589844 215.24726807 187.55429687 215.39687988 188.90234375 215.55102539 C192 216 192 216 194 217 C195.60611645 217.19667101 197.21843223 217.34406405 198.83203125 217.46484375 C199.79560547 217.54283203 200.75917969 217.62082031 201.75195312 217.70117188 C203.78037077 217.85780144 205.80901837 218.01148296 207.83789062 218.16210938 C209.28905273 218.28102539 209.28905273 218.28102539 210.76953125 218.40234375 C211.65229736 218.46929443 212.53506348 218.53624512 213.44458008 218.60522461 C216.22741609 219.0351325 218.46974319 219.76899704 221 221 C222.42041821 223.84083641 222.31452272 225.85477278 222 229 C219.83140118 231.86380969 218.5143076 232.87800689 214.99145508 233.71362305 C213.84572021 233.81199463 212.69998535 233.91036621 211.51953125 234.01171875 C210.27365234 234.12966797 209.02777344 234.24761719 207.74414062 234.36914062 C206.44669922 234.47419922 205.14925781 234.57925781 203.8125 234.6875 C201.23537158 234.91717023 198.65852739 235.15006083 196.08203125 235.38671875 C194.93968018 235.48170654 193.7973291 235.57669434 192.62036133 235.67456055 C190.07727991 235.71786508 190.07727991 235.71786508 189 237 C186.43466229 237.36231756 183.8841465 237.66811816 181.30859375 237.9375 C180.14058983 238.06499634 180.14058983 238.06499634 178.94898987 238.19506836 C176.44558591 238.46749665 173.94158481 238.73390947 171.4375 239 C168.95856082 239.26736733 166.47975747 239.53596068 164.00099182 239.80493164 C162.45728961 239.97200134 160.91346266 240.13792387 159.36949158 240.30249023 C157.24573686 240.52993896 155.12279492 240.7637743 153 241 C151.87127975 241.12157471 151.87127975 241.12157471 150.71975708 241.24560547 C147.05188025 241.36211461 147.05188025 241.36211461 144 243 C141.49857321 243.36124974 139.0116515 243.66701869 136.5 243.9375 C135.37368164 244.06499634 135.37368164 244.06499634 134.22460938 244.19506836 C130.99940793 244.56001478 127.77310073 244.91474964 124.546875 245.27050781 C122.19751138 245.53102192 119.84876208 245.79662618 117.5 246.0625 C116.76458984 246.14169678 116.02917969 246.22089355 115.27148438 246.30249023 C111.84136046 246.42696627 111.84136046 246.42696627 109 248 C105.92566358 248.4226187 102.86185169 248.78925616 99.77734375 249.12109375 C97.85741817 249.33655557 95.93749642 249.55205148 94.01757812 249.76757812 C90.98528098 250.10259667 87.95279546 250.43582553 84.92016602 250.76782227 C81.99703339 251.08936925 79.07469124 251.41749879 76.15234375 251.74609375 C74.80812599 251.88995766 74.80812599 251.88995766 73.43675232 252.03672791 C69.48590887 252.48260705 65.67320778 253.01441071 61.82446289 254.02514648 C58.06622155 254.98312016 54.51328659 255.48580903 50.65625 255.8515625 C50.00168823 255.91532074 49.34712646 255.97907898 48.67272949 256.04476929 C46.61564887 256.24384855 44.55789823 256.43457917 42.5 256.625 C41.09109253 256.75986091 39.6822377 256.895273 38.2734375 257.03125 C34.84954221 257.36052608 31.4249938 257.68232864 28 258 C27.92483154 258.92897095 27.92483154 258.92897095 27.84814453 259.87670898 C27.61351186 262.73087443 27.36931261 265.58414749 27.125 268.4375 C27.04636719 269.41138672 26.96773437 270.38527344 26.88671875 271.38867188 C26.50349225 275.79577657 26.06376021 280.07379173 25.02734375 284.37890625 C23.59335253 290.34026994 23.07675639 296.41184389 22.4375 302.5 C22.19014442 304.84416979 21.93905627 307.18794983 21.68359375 309.53125 C21.57587646 310.55798828 21.46815918 311.58472656 21.35717773 312.64257812 C21 315 21 315 20 316 C19.56584193 319.08328396 19.18721072 322.15625262 18.84375 325.25 C18.7365564 326.17844727 18.62936279 327.10689453 18.5189209 328.06347656 C18.17515518 331.04186177 17.83692947 334.02083415 17.5 337 C17.05697798 340.9172473 16.60839413 344.83379635 16.15625 348.75 C16.05517944 349.66040039 15.95410889 350.57080078 15.84997559 351.50878906 C15.11280181 357.88719819 15.11280181 357.88719819 14 359 C13.62629662 361.58593629 13.30846968 364.15747595 13.02734375 366.75390625 C12.93997452 367.52935287 12.85260529 368.3047995 12.7625885 369.10374451 C12.48346785 371.58955871 12.21042331 374.07599849 11.9375 376.5625 C11.74974767 378.24418519 11.5616018 379.92582649 11.37304688 381.60742188 C10.91079035 385.73778515 10.4539834 389.86871955 10 394 C9.34 394 8.68 394 8 394 C8.01667725 394.71687988 8.03335449 395.43375977 8.05053711 396.17236328 C8.15041799 403.85388548 7.55311637 411.26338026 6.5625 418.875 C6.36043945 420.50695312 6.36043945 420.50695312 6.15429688 422.171875 C5.19775397 429.80555402 3.96468604 437.33406225 2.4375 444.875 C2.29892578 445.56335938 2.16035156 446.25171875 2.01757812 446.9609375 C1.67927173 448.64080374 1.33976088 450.32042734 1 452 C-2.3 452 -5.6 452 -9 452 C-10.50400215 448.58691067 -11.30421349 445.66653542 -11.59765625 441.953125 C-11.67693359 441.02628906 -11.75621094 440.09945313 -11.83789062 439.14453125 C-11.94907227 437.71173828 -11.94907227 437.71173828 -12.0625 436.25 C-12.21610249 434.33822023 -12.37344685 432.42673611 -12.53515625 430.515625 C-12.63389038 429.25153809 -12.63389038 429.25153809 -12.73461914 427.96191406 C-12.79827538 425.99974437 -12.79827538 425.99974437 -14 425 C-14.34986605 422.51916625 -14.6436018 420.0532745 -14.90234375 417.5625 C-15.07226081 416.01171822 -15.24218285 414.46093699 -15.41210938 412.91015625 C-15.67447509 410.46612805 -15.93516838 408.02192829 -16.19506836 405.57763672 C-17.34175324 394.43630721 -17.34175324 394.43630721 -19.50219727 383.46044922 C-20.82437298 376.92543851 -21.29629083 370.18932371 -22 363.5625 C-23.31130004 350.91286408 -23.31130004 350.91286408 -25.53564453 338.3996582 C-26.49939358 333.41927472 -26.91094567 328.35417442 -27.4375 323.3125 C-28.34938293 314.95464545 -29.52304343 306.85494189 -31.3046875 298.640625 C-33.47744094 287.26418566 -34.41575016 275.57171283 -34 264 C-34.66 264 -35.32 264 -36 264 C-36.12375 263.195625 -36.2475 262.39125 -36.375 261.5625 C-36.58125 260.716875 -36.7875 259.87125 -37 259 C-39.95689643 257.52155179 -43.09598548 257.42721726 -46.34375 257.0625 C-47.06864624 256.97750244 -47.79354248 256.89250488 -48.54040527 256.80493164 C-50.85987139 256.53305191 -53.17984762 256.26595581 -55.5 256 C-58.55259682 255.65008512 -61.60457134 255.29532395 -64.65625 254.9375 C-65.71410706 254.81870483 -65.71410706 254.81870483 -66.79333496 254.69750977 C-71.77439638 254.11280181 -71.77439638 254.11280181 -74 253 C-75.3750926 252.77567747 -76.75780484 252.59699273 -78.14257812 252.44335938 C-78.99686401 252.34655884 -79.8511499 252.2497583 -80.73132324 252.15002441 C-81.65529907 252.04895386 -82.5792749 251.9478833 -83.53125 251.84375 C-84.47810669 251.7365564 -85.42496338 251.62936279 -86.4005127 251.5189209 C-89.43328186 251.17567106 -92.46655948 250.83726217 -95.5 250.5 C-99.49008112 250.05637719 -103.47956652 249.60786528 -107.46875 249.15625 C-108.85471375 249.00464417 -108.85471375 249.00464417 -110.26867676 248.84997559 C-111.12296265 248.75317505 -111.97724854 248.65637451 -112.85742188 248.55664062 C-113.987547 248.43125916 -113.987547 248.43125916 -115.14050293 248.30334473 C-117 248 -117 248 -119 247 C-121.51265348 246.65784748 -124.01409915 246.36140314 -126.53515625 246.09765625 C-128.08268693 245.92777666 -129.63021282 245.75785334 -131.17773438 245.58789062 C-133.61075991 245.32536905 -136.0439503 245.06447856 -138.47729492 244.80493164 C-153.89931438 243.15093937 -153.89931438 243.15093937 -160.52905273 241.50219727 C-167.08981879 240.16878201 -173.84795279 239.66670925 -180.5 238.9375 C-183.59433292 238.59743913 -186.68793786 238.25155228 -189.78125 237.90234375 C-190.84672058 237.78825417 -190.84672058 237.78825417 -191.93371582 237.67185974 C-196.8873151 237.1126849 -196.8873151 237.1126849 -198 236 C-199.86345251 235.72506746 -201.73554363 235.50823723 -203.609375 235.31640625 C-204.75664062 235.19330078 -205.90390625 235.07019531 -207.0859375 234.94335938 C-209.51278721 234.69110154 -211.93986961 234.44107162 -214.3671875 234.19335938 C-216.09582031 234.00676758 -216.09582031 234.00676758 -217.859375 233.81640625 C-218.91608398 233.70756104 -219.97279297 233.59871582 -221.06152344 233.48657227 C-224.23689776 232.96077291 -227.64674198 232.35325802 -230 230 C-230.37086093 224.1589404 -230.37086093 224.1589404 -230 222 C-226.78988633 219.85992422 -225.30981718 219.61369997 -221.5546875 219.21875 C-220.47703125 219.09886719 -219.399375 218.97898437 -218.2890625 218.85546875 C-216.59910156 218.67951172 -216.59910156 218.67951172 -214.875 218.5 C-206.24046863 217.64990033 -206.24046863 217.64990033 -197.73046875 216.03125 C-190.04316687 214.1890993 -182.05347508 213.62980599 -174.20825195 212.75 C-172.03284122 212.50436977 -169.85823222 212.2523624 -167.68359375 212 C-165.75858032 211.7834375 -165.75858032 211.7834375 -163.79467773 211.5625 C-160.39649279 211.05877368 -157.21538456 210.32509265 -153.90220642 209.45700073 C-151.18232165 208.80355465 -148.47390997 208.51534808 -145.69140625 208.25390625 C-144.54140137 208.14046875 -143.39139648 208.02703125 -142.20654297 207.91015625 C-141.00400879 207.79542969 -139.80147461 207.68070313 -138.5625 207.5625 C-129.41719927 206.64127223 -120.47956723 205.47617222 -111.453125 203.75 C-104.591741 202.51764665 -97.63999752 201.8864736 -90.71435547 201.125 C-84.27635908 200.40707039 -77.88818242 199.57250944 -71.5 198.5 C-59.7288049 196.52526588 -47.86162701 195.29573797 -36 194 C-36.0309375 192.2984375 -36.0309375 192.2984375 -36.0625 190.5625 C-36 187 -36 187 -35 186 C-34.66152864 183.63604272 -34.3796971 181.28807508 -34.1328125 178.9140625 C-33.96938185 177.42040335 -33.80588647 175.92675128 -33.64233398 174.43310547 C-33.55797089 173.64788513 -33.47360779 172.86266479 -33.38668823 172.0536499 C-32.18720974 160.92165016 -30.96619301 149.81806237 -29.07910156 138.77832031 C-27.75458288 130.89289812 -26.88243624 122.95287799 -26.00170898 115.00732422 C-25.88512939 113.9813916 -25.7685498 112.95545898 -25.6484375 111.8984375 C-25.54708496 110.97724121 -25.44573242 110.05604492 -25.34130859 109.10693359 C-25 107 -25 107 -24 106 C-23.6615287 103.63604315 -23.37970057 101.28807429 -23.1328125 98.9140625 C-22.96937922 97.4205664 -22.80588395 95.92707708 -22.64233398 94.43359375 C-22.51578934 93.25579346 -22.51578934 93.25579346 -22.38668823 92.05419922 C-21.19224682 80.96643985 -19.97239857 69.91244918 -18.07910156 58.91894531 C-16.68121943 50.56612084 -15.86161013 42.1411696 -15.00170898 33.71875 C-14.8268396 32.04425781 -14.8268396 32.04425781 -14.6484375 30.3359375 C-14.49640869 28.82845947 -14.49640869 28.82845947 -14.34130859 27.29052734 C-14 25 -14 25 -13 24 C-12.80933475 22.47654359 -12.67676897 20.94570857 -12.5703125 19.4140625 C-12.49683594 18.48335938 -12.42335938 17.55265625 -12.34765625 16.59375 C-12.19984413 14.62292169 -12.05915626 12.65154544 -11.92578125 10.6796875 C-11.81169922 9.27976562 -11.81169922 9.27976562 -11.6953125 7.8515625 C-11.6027417 6.56499756 -11.6027417 6.56499756 -11.50830078 5.25244141 C-10.07403731 -1.10323333 -5.41569571 -0.42981712 0 0 Z " fill="#203345" transform="translate(516,286)"></path>
<path d="M0 0 C0.66 0.33 1.32 0.66 2 1 C1.814375 1.94875 1.62875 2.8975 1.4375 3.875 C0.71313368 6.89868793 0.71313368 6.89868793 2 9 C7.35840553 10.52523903 13.0720017 10.41456984 18.6015625 10.71875 C22 11 22 11 25 12 C27.66946569 12.26779672 30.33876816 12.4433928 33.015625 12.62109375 C36 13 36 13 38.96484375 13.91796875 C44.27657486 15.5181404 49.80520437 15.97335274 55.29586792 16.63244629 C58.73796492 17.04645012 62.17766037 17.47928794 65.6171875 17.9140625 C66.314384 18.0020813 67.01158051 18.0901001 67.72990417 18.18078613 C78.51967898 19.55912438 89.26044639 21.27857174 100 23 C100 23.33 100 23.66 100 24 C88.9088645 23.69105472 78.14707395 22.36492852 67.19799805 20.58959961 C58.04306774 19.11725893 48.87266782 17.96519182 39.65625 16.95166016 C38.66496094 16.83999512 37.67367187 16.72833008 36.65234375 16.61328125 C35.77570068 16.51829346 34.89905762 16.42330566 33.99584961 16.32543945 C32 16 32 16 31 15 C29.13654749 14.72506746 27.26445637 14.50823723 25.390625 14.31640625 C24.24335938 14.19330078 23.09609375 14.07019531 21.9140625 13.94335938 C19.48721279 13.69110154 17.06013039 13.44107162 14.6328125 13.19335938 C13.48039062 13.06896484 12.32796875 12.94457031 11.140625 12.81640625 C10.08391602 12.70756104 9.02720703 12.59871582 7.93847656 12.48657227 C4.76310224 11.96077291 1.35325802 11.35325802 -1 9 C-1.1328125 7.1875 -1.1328125 7.1875 -1.125 5 C-1.12757813 4.278125 -1.13015625 3.55625 -1.1328125 2.8125 C-1 1 -1 1 0 0 Z " fill="#CDD1CF" transform="translate(287,507)"></path>
<path d="M0 0 C2.78752362 2.78752362 2.69513914 5.13182716 3.25 9 C3.44078125 10.258125 3.6315625 11.51625 3.828125 12.8125 C3.88484375 13.864375 3.9415625 14.91625 4 16 C3.34 16.66 2.68 17.32 2 18 C1.34 13.05 0.68 8.1 0 3 C-2.31 2.67 -4.62 2.34 -7 2 C-8.6846194 6.52916945 -9.50248841 10.89053422 -10 15.671875 C-10.08121094 16.39433411 -10.16242188 17.11679321 -10.24609375 17.86114502 C-10.50356617 20.15679633 -10.75253868 22.45324964 -11 24.75 C-13.05065443 43.6064083 -13.05065443 43.6064083 -15 52 C-15.33 52 -15.66 52 -16 52 C-15.85785272 48.99978513 -15.71138304 45.99988211 -15.5625 43 C-15.52318359 42.16082031 -15.48386719 41.32164062 -15.44335938 40.45703125 C-14.69977679 25.69977679 -14.69977679 25.69977679 -13 24 C-12.80933475 22.47654359 -12.67676897 20.94570857 -12.5703125 19.4140625 C-12.49683594 18.48335938 -12.42335938 17.55265625 -12.34765625 16.59375 C-12.19984413 14.62292169 -12.05915626 12.65154544 -11.92578125 10.6796875 C-11.84972656 9.74640625 -11.77367187 8.813125 -11.6953125 7.8515625 C-11.63359863 6.99385254 -11.57188477 6.13614258 -11.50830078 5.25244141 C-10.07403731 -1.10323333 -5.41569571 -0.42981712 0 0 Z " fill="#D8DCD9" transform="translate(516,286)"></path>
<path d="M0 0 C2.8966148 0.11430048 5.79178316 0.2410424 8.6875 0.375 C9.50412109 0.4059375 10.32074219 0.436875 11.16210938 0.46875 C15.4506472 0.67710002 19.15264306 0.89040389 23 3 C24.42041821 5.84083641 24.31452272 7.85477278 24 11 C22.62109375 13.1484375 22.62109375 13.1484375 20 15 C16.59093647 15.63672107 13.21145806 15.69667221 9.75 15.75 C8.34621094 15.79447266 8.34621094 15.79447266 6.9140625 15.83984375 C4.60928908 15.91039804 2.30551832 15.96316252 0 16 C0 15.67 0 15.34 0 15 C0.60062256 14.91435791 1.20124512 14.82871582 1.82006836 14.74047852 C4.52651658 14.35211985 7.23199836 13.95739671 9.9375 13.5625 C10.88302734 13.42779297 11.82855469 13.29308594 12.80273438 13.15429688 C14.15141602 12.95610352 14.15141602 12.95610352 15.52734375 12.75390625 C16.77632446 12.57323608 16.77632446 12.57323608 18.05053711 12.38891602 C19.99687359 12.18816006 19.99687359 12.18816006 21 11 C21.16666667 8 21.16666667 8 21 5 C19.43614918 3.43614918 17.6888591 3.55876578 15.52734375 3.24609375 C14.17866211 3.04790039 14.17866211 3.04790039 12.80273438 2.84570312 C11.85720703 2.71099609 10.91167969 2.57628906 9.9375 2.4375 C8.98810547 2.29892578 8.03871094 2.16035156 7.06054688 2.01757812 C4.7075435 1.67467814 2.35404517 1.33566063 0 1 C0 0.67 0 0.34 0 0 Z " fill="#D6D9D5" transform="translate(714,504)"></path>
<path d="M0 0 C4.62 0 9.24 0 14 0 C14 0.66 14 1.32 14 2 C14.99966797 1.96519531 14.99966797 1.96519531 16.01953125 1.9296875 C22.91756737 1.79462106 29.26300148 2.54053417 36 4 C36 4.33 36 4.66 36 5 C28.11876761 5.27653447 17.17946902 5.58973451 10 2 C8.29636178 1.77377919 6.58671299 1.59111527 4.875 1.4375 C3.96492188 1.35371094 3.05484375 1.26992188 2.1171875 1.18359375 C1.41851562 1.12300781 0.71984375 1.06242188 0 1 C0 0.67 0 0.34 0 0 Z " fill="#C8CCCB" transform="translate(387,531)"></path>
<path d="M0 0 C0.33 0 0.66 0 1 0 C1.18175781 1.86205078 1.18175781 1.86205078 1.3671875 3.76171875 C1.53607548 5.40368526 1.7053676 7.04561023 1.875 8.6875 C1.95363281 9.50412109 2.03226562 10.32074219 2.11328125 11.16210938 C2.56214171 15.42628372 3.10442187 19.08937454 5 23 C9.14093698 23.20970559 9.14093698 23.20970559 13 22 C13 22.99 13 23.98 13 25 C9.7 25 6.4 25 3 25 C-0.70159571 17.10326248 -0.12782865 8.52190991 0 0 Z " fill="#CDD0CE" transform="translate(504,713)"></path>
<path d="M0 0 C0.309375 0.639375 0.61875 1.27875 0.9375 1.9375 C1.8345163 3.93610821 1.8345163 3.93610821 3 5 C7.14276875 5.24733137 7.14276875 5.24733137 11 4 C11 4.99 11 5.98 11 7 C9.35425434 7.02688151 7.70838587 7.04634123 6.0625 7.0625 C5.14597656 7.07410156 4.22945313 7.08570313 3.28515625 7.09765625 C1 7 1 7 0 6 C-0.04080783 4.00041636 -0.04254356 1.99954746 0 0 Z " fill="#DCDDD8" transform="translate(506,731)"></path>
<path d="M0 0 C2.0625 0.4375 2.0625 0.4375 4 1 C3.34 1 2.68 1 2 1 C2 1.66 2 2.32 2 3 C1.34 3 0.68 3 0 3 C0 4.32 0 5.64 0 7 C-0.66 7 -1.32 7 -2 7 C-1.125 1.125 -1.125 1.125 0 0 Z " fill="#3E4D59" transform="translate(289,507)"></path>
</svg>